<?xml version="1.0" encoding="UTF-8"?>
<!DOCTYPE svg PUBLIC "-//W3C//DTD SVG 1.1//EN" "http://www.w3.org/Graphics/SVG/1.1/DTD/svg11.dtd">
<svg xmlns="http://www.w3.org/2000/svg" version="1.1" width="512px" height="512px" style="shape-rendering:geometricPrecision; text-rendering:geometricPrecision; image-rendering:optimizeQuality; fill-rule:evenodd; clip-rule:evenodd" xmlns:xlink="http://www.w3.org/1999/xlink">
<g><path style="opacity:0.971" fill="#000000" d="M 315.5,84.5 C 322.069,83.8588 328.069,85.3588 333.5,89C 384.333,139.833 435.167,190.667 486,241.5C 492,250.833 492,260.167 486,269.5C 434.473,321.361 382.639,372.861 330.5,424C 315.185,430.088 304.351,425.588 298,410.5C 296.791,404.114 297.791,398.114 301,392.5C 339.167,354.333 377.333,316.167 415.5,278C 289.833,277.667 164.167,277.333 38.5,277C 22.9478,272.401 17.4478,262.235 22,246.5C 25.1835,239.321 30.6835,235.154 38.5,234C 164.167,233.667 289.833,233.333 415.5,233C 377.667,195.167 339.833,157.333 302,119.5C 294.032,102.893 298.532,91.2259 315.5,84.5 Z"/></g>
</svg>
